<?xml version="1.0" encoding="UTF-8" standalone="no"?>
<svg
   xmlns:dc="http://purl.org/dc/elements/1.1/"
   xmlns:cc="http://creativecommons.org/ns#"
   xmlns:rdf="http://www.w3.org/1999/02/22-rdf-syntax-ns#"
   xmlns:svg="http://www.w3.org/2000/svg"
   xmlns="http://www.w3.org/2000/svg"
   xmlns:sodipodi="http://sodipodi.sourceforge.net/DTD/sodipodi-0.dtd"
   xmlns:inkscape="http://www.inkscape.org/namespaces/inkscape"
   width="741.00635mm"
   height="137.78976mm"
   viewBox="0 0 741.00638 137.78976"
   version="1.1"
   id="svg8"
   inkscape:version="1.0 (4035a4fb49, 2020-05-01)"
   sodipodi:docname="logo.svg">
  <defs
     id="defs2" />
  <sodipodi:namedview
     id="base"
     pagecolor="#ffffff"
     bordercolor="#666666"
     borderopacity="1.0"
     inkscape:pageopacity="0.0"
     inkscape:pageshadow="2"
     inkscape:zoom="0.25000001"
     inkscape:cx="749.39378"
     inkscape:cy="161.30641"
     inkscape:document-units="px"
     inkscape:current-layer="layer1"
     inkscape:document-rotation="0"
     showgrid="false"
     showborder="false"
     inkscape:snap-bbox="true"
     inkscape:bbox-paths="true"
     inkscape:bbox-nodes="true"
     inkscape:snap-bbox-edge-midpoints="true"
     inkscape:snap-bbox-midpoints="true"
     inkscape:object-paths="true"
     inkscape:snap-intersection-paths="true"
     inkscape:snap-smooth-nodes="true"
     inkscape:snap-midpoints="true"
     inkscape:window-width="1836"
     inkscape:window-height="1051"
     inkscape:window-x="-9"
     inkscape:window-y="-9"
     inkscape:window-maximized="1"
     fit-margin-top="0"
     fit-margin-left="0"
     fit-margin-right="0"
     fit-margin-bottom="0" />
  <metadata
     id="metadata5">
    <rdf:RDF>
      <cc:Work
         rdf:about="">
        <dc:format>image/svg+xml</dc:format>
        <dc:type
           rdf:resource="http://purl.org/dc/dcmitype/StillImage" />
        <dc:title />
      </cc:Work>
    </rdf:RDF>
  </metadata>
  <g
     inkscape:label="Layer 1"
     inkscape:groupmode="layer"
     id="layer1"
     transform="translate(-11.641413,-56.678969)">
    <path
       id="rect833"
       style="opacity:1;fill:#54b4f0;fill-opacity:1;fill-rule:evenodd;stroke-width:0.505475;stroke-miterlimit:4;stroke-dasharray:none"
       d="m 31.860573,59.002083 h 95.028857 c 11.20129,0 20.2189,9.017617 20.2189,20.218907 v 95.02869 c 0,11.20138 -9.01761,20.21905 -20.2189,20.21905 H 31.860573 c -11.201286,0 -20.218907,-9.01767 -20.218907,-20.21905 V 79.22099 c 0,-11.20129 9.017621,-20.218907 20.218907,-20.218907 z" />
    <path
       id="path847"
       style="font-style:normal;font-variant:normal;font-weight:normal;font-stretch:normal;font-size:116.417px;line-height:1.25;font-family:'Source Serif Pro';-inkscape-font-specification:'Source Serif Pro';fill:#ffffff;fill-opacity:0.975708;stroke:none;stroke-width:0.266138"
       d="m 125.24328,56.678969 c -5.69884,0 -10.96835,1.014706 -15.80844,3.044427 -4.76202,2.029718 -8.93854,4.87941 -12.529586,8.54852 -3.512984,3.669112 -6.28437,8.001717 -8.314085,12.99795 -1.951658,4.91817 -2.927464,10.343771 -2.927464,16.276805 0,8.040859 1.638973,15.144849 4.917758,21.312029 3.356835,6.16723 8.002076,11.00744 13.935127,14.52041 6.01106,3.43494 12.95897,5.15221 20.84365,5.15221 4.13752,0 8.19686,-0.46822 12.17822,-1.405 3.44738,-0.72925 6.72493,-1.85393 9.83446,-3.37134 v -17.82372 h -5.15063 l -2.34167,13.58372 c -2.26388,1.09292 -4.60596,1.91269 -7.02602,2.45915 -2.34199,0.46839 -4.64515,0.70226 -6.90908,0.70226 -5.30848,0 -10.07041,-1.32686 -14.28598,-3.98112 -4.13751,-2.65423 -7.3771,-6.59694 -9.71904,-11.82733 -2.342007,-5.23048 -3.513299,-11.67079 -3.513299,-19.321269 0,-7.65049 1.249072,-14.051906 3.747179,-19.20428 2.57618,-5.230439 6.01125,-9.172601 10.30488,-11.826856 4.29366,-2.654247 9.05553,-3.981614 14.28599,-3.981614 1.87355,0 3.7863,0.234359 5.73797,0.702757 2.02971,0.468396 4.09855,1.288151 6.20632,2.459145 l 2.34166,13.583236 h 6.32172 V 62.033362 c -3.74967,-2.112911 -7.53539,-3.50891 -11.35695,-4.183304 -3.98138,-0.780654 -7.57198,-1.171089 -10.77269,-1.171089 z M 11.112499,58.43535 v 78.33959 h 18.244708 v -4.80081 L 16.944566,130.33469 V 73.775487 l 46.83952,63.819143 h 4.098563 V 64.758636 l 9.953502,-1.521958 V 58.43535 H 49.615073 v 4.801328 l 12.295683,1.521958 V 116.51654 L 19.638132,58.43535 Z" />
    <path
       d="m 227.01162,94.720958 v -4.339153 h 25.50576 v 4.339153 l -8.99581,1.375829 v 65.828123 h -3.70415 l -42.33321,-57.67898 v 51.11734 l 11.2183,1.48166 v 4.33915 h -25.61158 v -4.33915 l 8.9958,-1.27 V 96.837618 l -0.9525,-1.269996 -7.51414,-0.846664 v -4.339153 h 16.29828 l 38.20572,52.493165 V 96.096787 Z"
       style="font-style:normal;font-variant:normal;font-weight:normal;font-stretch:normal;font-size:105.833px;line-height:1.25;font-family:'Source Serif Pro';-inkscape-font-specification:'Source Serif Pro';fill:#000000;fill-opacity:1;stroke:none;stroke-width:0.264583"
       id="path834" />
    <path
       d="m 284.44256,162.55991 q -6.13831,0 -11.74746,-2.85749 -5.50332,-2.96332 -8.99581,-8.78414 -3.49248,-5.92665 -3.49248,-14.60495 0,-8.78414 3.49248,-14.71079 3.49249,-6.03248 8.99581,-8.99581 5.60915,-3.06915 11.74746,-3.06915 6.13832,0 11.64163,3.06915 5.60915,2.96333 9.10164,8.99581 3.59832,5.92665 3.59832,14.71079 0,8.6783 -3.59832,14.60495 -3.49249,5.82082 -9.10164,8.78414 -5.50331,2.85749 -11.64163,2.85749 z m 0,-4.76248 q 6.87915,0 10.5833,-5.39749 3.70416,-5.50331 3.70416,-16.08661 0,-10.68914 -3.70416,-16.29829 -3.70415,-5.60914 -10.5833,-5.60914 -6.87914,0 -10.5833,5.60914 -3.59832,5.60915 -3.59832,16.29829 0,10.5833 3.59832,16.08661 3.70416,5.39749 10.5833,5.39749 z"
       style="font-style:normal;font-variant:normal;font-weight:normal;font-stretch:normal;font-size:105.833px;line-height:1.25;font-family:'Source Serif Pro';-inkscape-font-specification:'Source Serif Pro';fill:#000000;fill-opacity:1;stroke:none;stroke-width:0.264583"
       id="path836" />
    <path
       d="m 317.76176,161.18408 v -3.80999 l 7.83164,-1.48166 q 0.10584,-4.02165 0.10584,-8.6783 0.10583,-4.65666 0.10583,-8.25498 v -5.07998 q 0,-4.33916 -0.10583,-7.19665 0,-2.85749 -0.21167,-6.03248 l -8.36081,-0.95249 v -3.70416 l 14.81662,-6.45581 1.5875,1.05833 0.84666,8.46664 q 3.91582,-4.23332 8.99581,-6.87915 5.07998,-2.64582 9.9483,-2.64582 6.87915,0 10.15997,4.65665 3.38665,4.55082 3.38665,14.92245 v 9.84247 q 0,3.59832 0,8.25498 0.10584,4.65665 0.21167,8.6783 l 7.40831,1.48166 v 3.80999 h -24.55326 v -3.80999 l 7.83165,-1.48166 q 0.10583,-3.91582 0.10583,-8.57247 0.10583,-4.76249 0.10583,-8.36081 v -8.9958 q 0,-7.30248 -2.11666,-10.05414 -2.01082,-2.75166 -6.66748,-2.75166 -3.59832,0 -6.98497,1.48167 -3.38666,1.48166 -7.40831,4.86831 v 15.45162 q 0,3.49249 0,8.25498 0.10583,4.65665 0.21166,8.6783 l 7.30248,1.48166 v 3.80999 z"
       style="font-style:normal;font-variant:normal;font-weight:normal;font-stretch:normal;font-size:105.833px;line-height:1.25;font-family:'Source Serif Pro';-inkscape-font-specification:'Source Serif Pro';fill:#000000;fill-opacity:1;stroke:none;stroke-width:0.264583"
       id="path838" />
    <path
       d="m 418.45856,162.77158 q -10.68913,0 -18.83827,-4.65665 -8.04331,-4.76249 -12.59413,-13.1233 -4.44498,-8.3608 -4.44498,-19.2616 0,-8.04331 2.64582,-14.71079 2.75166,-6.77331 7.51414,-11.747463 4.86832,-4.974151 11.32414,-7.725809 6.56164,-2.751658 14.28745,-2.751658 4.33915,0 9.73664,1.05833 5.39748,0.952497 10.68913,4.021654 l 0.42333,15.345786 h -6.56164 l -2.11666,-12.276629 q -2.8575,-1.587495 -5.60915,-2.222493 -2.64583,-0.634998 -5.18582,-0.634998 -7.09081,0 -12.91163,3.598322 -5.82081,3.598318 -9.3133,10.689128 -3.38666,6.98498 -3.38666,17.35662 0,10.37163 3.17499,17.46244 3.17499,7.09081 8.78414,10.68914 5.71498,3.59832 12.91163,3.59832 3.06916,0 6.24415,-0.635 3.28082,-0.74083 6.34998,-2.22249 l 2.11666,-12.27663 h 6.56164 l -0.42333,15.34578 q -4.86832,2.64583 -10.37163,3.80999 -5.39749,1.27 -11.00664,1.27 z"
       style="font-style:normal;font-variant:normal;font-weight:normal;font-stretch:normal;font-size:105.833px;line-height:1.25;font-family:'Source Serif Pro';-inkscape-font-specification:'Source Serif Pro';fill:#000000;fill-opacity:1;stroke:none;stroke-width:0.264583"
       id="path840" />
    <path
       d="m 472.84185,114.4059 q -2.96332,0 -6.03248,1.69332 -2.96333,1.69333 -5.18582,5.39749 -2.11666,3.70415 -2.75166,9.84247 h 19.26161 q 3.80999,0 4.97415,-1.5875 1.27,-1.58749 1.27,-3.91582 0,-3.06916 -1.5875,-5.60915 -1.48166,-2.64582 -4.12749,-4.23332 -2.53999,-1.58749 -5.82081,-1.58749 z m -0.10583,48.15401 q -10.68914,0 -17.14495,-6.87914 -6.45581,-6.98498 -6.45581,-19.15578 0,-8.14914 3.28082,-14.18162 3.38666,-6.03248 8.88997,-9.41914 5.60915,-3.38665 12.1708,-3.38665 5.50331,0 9.9483,2.43416 4.44499,2.43416 7.09081,6.98497 2.64583,4.44499 2.64583,10.9008 0,1.79916 -0.21167,3.38666 -0.21167,1.48166 -0.52917,2.53999 h -33.76072 q 0.21166,9.73664 4.86832,14.81662 4.65665,5.07999 12.27662,5.07999 5.07999,0 8.46664,-2.01083 3.38666,-2.11666 6.24415,-5.39748 l 2.53999,2.01082 q -2.96332,5.60915 -8.04331,8.99581 -5.07998,3.28082 -12.27662,3.28082 z"
       style="font-style:normal;font-variant:normal;font-weight:normal;font-stretch:normal;font-size:105.833px;line-height:1.25;font-family:'Source Serif Pro';-inkscape-font-specification:'Source Serif Pro';fill:#000000;fill-opacity:1;stroke:none;stroke-width:0.264583"
       id="path842" />
    <path
       d="m 502.5561,161.18408 v -3.80999 l 7.83165,-1.48166 q 0.10583,-4.02165 0.10583,-8.6783 0.10583,-4.65666 0.10583,-8.25498 v -5.07998 q 0,-4.33916 -0.10583,-7.19665 0,-2.85749 -0.21167,-6.03248 l -8.3608,-0.95249 v -3.70416 l 14.81662,-6.45581 1.58749,1.05833 0.84667,8.46664 q 3.91582,-4.23332 8.9958,-6.87915 5.07998,-2.64582 9.9483,-2.64582 6.87915,0 10.15997,4.65665 3.38666,4.55082 3.38666,14.92245 v 9.84247 q 0,3.59832 0,8.25498 0.10583,4.65665 0.21166,8.6783 l 7.40831,1.48166 v 3.80999 h -24.55325 v -3.80999 l 7.83164,-1.48166 q 0.10583,-3.91582 0.10583,-8.57247 0.10583,-4.76249 0.10583,-8.36081 v -8.9958 q 0,-7.30248 -2.11666,-10.05414 -2.01082,-2.75166 -6.66747,-2.75166 -3.59833,0 -6.98498,1.48167 -3.38666,1.48166 -7.40831,4.86831 v 15.45162 q 0,3.49249 0,8.25498 0.10583,4.65665 0.21166,8.6783 l 7.30248,1.48166 v 3.80999 z"
       style="font-style:normal;font-variant:normal;font-weight:normal;font-stretch:normal;font-size:105.833px;line-height:1.25;font-family:'Source Serif Pro';-inkscape-font-specification:'Source Serif Pro';fill:#000000;fill-opacity:1;stroke:none;stroke-width:0.264583"
       id="path844" />
    <path
       d="m 583.47702,162.55991 q -5.50332,0 -8.78414,-2.96332 -3.28083,-2.96333 -3.28083,-9.10164 0,-2.01083 0,-3.91582 0.10584,-2.01083 0.10584,-5.07999 v -24.97658 h -8.78414 v -4.65666 l 9.41913,-1.16416 2.75166,-14.181621 h 6.34998 l -0.635,14.393291 h 14.28746 v 5.60915 h -14.39329 v 32.80823 q 0,4.02165 1.5875,5.92664 1.58749,1.79917 4.23332,1.79917 1.79916,0 3.38665,-0.74084 1.69333,-0.74083 3.70416,-2.11666 l 2.53999,2.75166 q -4.33915,5.60915 -12.48829,5.60915 z"
       style="font-style:normal;font-variant:normal;font-weight:normal;font-stretch:normal;font-size:105.833px;line-height:1.25;font-family:'Source Serif Pro';-inkscape-font-specification:'Source Serif Pro';fill:#000000;fill-opacity:1;stroke:none;stroke-width:0.264583"
       id="path846" />
    <path
       d="m 600.53929,161.18408 v -3.80999 l 7.61997,-1.37582 q 0.10583,-4.02166 0.10583,-8.67831 0.10584,-4.76249 0.10584,-8.36081 v -5.07998 q 0,-4.33916 -0.10584,-7.19665 0,-2.85749 -0.21166,-6.03248 l -8.36081,-0.95249 v -3.70416 l 14.81662,-6.45581 1.5875,1.05833 1.16416,12.48829 q 2.64582,-6.34998 6.77331,-9.9483 4.23332,-3.59832 8.46664,-3.59832 2.43416,0 4.55082,1.05833 2.11666,1.05833 3.06916,2.85749 0,7.72581 -6.24415,7.72581 -1.79916,0 -3.38666,-0.635 -1.58749,-0.74083 -3.06915,-2.01083 l -1.27,-1.16416 q -3.17499,2.32833 -5.29165,5.71498 -2.11666,3.38666 -3.49249,7.93748 v 7.93747 q 0,3.49249 0,8.14914 0.10584,4.65666 0.21167,8.67831 l 8.6783,1.58749 v 3.80999 z"
       style="font-style:normal;font-variant:normal;font-weight:normal;font-stretch:normal;font-size:105.833px;line-height:1.25;font-family:'Source Serif Pro';-inkscape-font-specification:'Source Serif Pro';fill:#000000;fill-opacity:1;stroke:none;stroke-width:0.264583"
       id="path848" />
    <path
       d="m 644.65343,161.18408 v -3.80999 l 7.93748,-1.48166 q 0.10583,-4.02165 0.10583,-8.6783 0.10584,-4.76249 0.10584,-8.25498 V 133.985 q 0,-4.33915 -0.10584,-7.19664 0,-2.96333 -0.21166,-6.13832 l -8.46664,-0.95249 v -3.70416 l 16.29828,-6.45581 1.58749,1.05833 -0.3175,14.39329 v 13.96995 q 0,3.49249 0,8.25498 0.10584,4.65665 0.21167,8.6783 l 7.40831,1.48166 v 3.80999 z m 12.4883,-63.288132 q -2.96333,0 -5.07999,-1.904994 -2.01082,-1.904994 -2.01082,-4.868318 0,-3.069157 2.01082,-4.868318 2.11666,-1.904994 5.07999,-1.904994 2.96332,0 4.97415,1.904994 2.11666,1.799161 2.11666,4.868318 0,2.963324 -2.11666,4.868318 -2.01083,1.904994 -4.97415,1.904994 z"
       style="font-style:normal;font-variant:normal;font-weight:normal;font-stretch:normal;font-size:105.833px;line-height:1.25;font-family:'Source Serif Pro';-inkscape-font-specification:'Source Serif Pro';fill:#000000;fill-opacity:1;stroke:none;stroke-width:0.264583"
       id="path850" />
    <path
       d="m 693.74176,162.55991 q -4.44498,0 -8.14914,-1.05833 -3.70415,-0.9525 -7.61997,-2.96332 l -0.42333,-11.64163 h 5.82081 l 2.01083,9.20747 q 3.70415,1.69333 8.57247,1.69333 6.03248,0 8.88997,-2.2225 2.96333,-2.22249 2.96333,-5.82081 0,-3.38666 -2.43416,-5.39748 -2.43416,-2.11667 -7.40831,-3.80999 l -4.86832,-1.79916 q -5.82082,-2.11666 -9.3133,-5.50332 -3.49249,-3.38666 -3.49249,-8.78414 0,-3.91582 2.11666,-7.30248 2.11666,-3.38665 6.24414,-5.50331 4.12749,-2.11666 10.05414,-2.11666 4.33915,0 7.83164,1.16416 3.59832,1.05833 6.98498,3.17499 l -0.42333,10.79497 h -5.50332 l -1.69333,-8.46664 q -3.59832,-1.79916 -7.30247,-1.79916 -4.86832,0 -7.40831,2.01082 -2.43416,1.905 -2.43416,5.18582 0,3.49249 2.11666,5.29165 2.22249,1.79916 7.61997,3.80999 l 3.28083,1.16416 q 7.93747,2.96332 11.21829,6.77331 3.38666,3.80999 3.38666,8.78414 0,4.02166 -2.32833,7.51415 -2.32832,3.38665 -6.87914,5.50331 -4.55082,2.11666 -11.42997,2.11666 z"
       style="font-style:normal;font-variant:normal;font-weight:normal;font-stretch:normal;font-size:105.833px;line-height:1.25;font-family:'Source Serif Pro';-inkscape-font-specification:'Source Serif Pro';fill:#000000;fill-opacity:1;stroke:none;stroke-width:0.264583"
       id="path852" />
    <path
       d="m 740.15945,162.55991 q -5.50332,0 -8.78414,-2.96332 -3.28082,-2.96333 -3.28082,-9.10164 0,-2.01083 0,-3.91582 0.10583,-2.01083 0.10583,-5.07999 v -24.97658 h -8.78414 v -4.65666 l 9.41914,-1.16416 2.75166,-14.181621 h 6.34998 l -0.635,14.393291 h 14.28745 v 5.60915 h -14.39328 v 32.80823 q 0,4.02165 1.58749,5.92664 1.5875,1.79917 4.23332,1.79917 1.79916,0 3.38666,-0.74084 1.69332,-0.74083 3.70415,-2.11666 l 2.53999,2.75166 q -4.33915,5.60915 -12.48829,5.60915 z"
       style="font-style:normal;font-variant:normal;font-weight:normal;font-stretch:normal;font-size:105.833px;line-height:1.25;font-family:'Source Serif Pro';-inkscape-font-specification:'Source Serif Pro';fill:#000000;fill-opacity:1;stroke:none;stroke-width:0.264583"
       id="path854" />
  </g>
</svg>
